<svg width="113" height="24" viewBox="0 0 113 24" fill="none" xmlns="http://www.w3.org/2000/svg">
<g clip-path="url(#clip0_1377_3162)">
<mask id="mask0_1377_3162" style="mask-type:luminance" maskUnits="userSpaceOnUse" x="0" y="0" width="113" height="24">
<path d="M112.4 0H0V24H112.4V0Z" fill="white"/>
</mask>
<g mask="url(#mask0_1377_3162)">
<path d="M21 15H14.2L10.5 18.7L6.8 15H0V18.7H5.2L7.8 21.3L10.4 23.9L13 21.3L15.6 18.7H20.8V15H21Z" fill="#131E29"/>
<path d="M21 7.6001H0V11.3001H21V7.6001Z" fill="#131E29"/>
<path d="M21 0.200195H0V3.9002H21V0.200195Z" fill="#131E29"/>
<path d="M29.2998 0.200195H32.5998V18.4002H29.2998V0.200195Z" fill="#131E29"/>
<path d="M37.9 17.9001C36.8 17.3001 36 16.5001 35.4 15.5001C34.8 14.5001 34.5 13.4001 34.5 12.2001C34.5 11.0001 34.8 9.9001 35.4 8.9001C36 7.9001 36.8 7.1001 37.9 6.5001C39 5.9001 40.1 5.6001 41.3 5.6001C42.5 5.6001 43.7 5.9001 44.7 6.5001C45.8 7.1001 46.6 7.9001 47.2 8.9001C47.8 9.9001 48.1 11.0001 48.1 12.2001C48.1 13.4001 47.8 14.5001 47.2 15.5001C46.6 16.5001 45.7 17.3001 44.7 17.9001C43.6 18.5001 42.5 18.8001 41.3 18.8001C40.1 18.8001 38.9 18.5001 37.9 17.9001ZM43 15.2001C43.5 14.9001 44 14.5001 44.3 13.9001C44.6 13.4001 44.8 12.8001 44.8 12.1001C44.8 11.4001 44.6 10.8001 44.3 10.3001C44 9.8001 43.6 9.3001 43 9.0001C42.5 8.7001 41.9 8.6001 41.2 8.6001C40.5 8.6001 40 8.7001 39.4 9.0001C38.9 9.3001 38.4 9.7001 38.1 10.3001C37.8 10.8001 37.6 11.4001 37.6 12.1001C37.6 12.8001 37.8 13.4001 38.1 13.9001C38.4 14.4001 38.8 14.9001 39.4 15.2001C39.9 15.5001 40.5 15.6001 41.2 15.6001C41.8 15.6001 42.4 15.5001 43 15.2001Z" fill="#131E29"/>
<path d="M49.8999 0.200195H53.1999V11.0002L57.4999 5.9002H61.4999L56.5999 11.7002L61.8999 18.4002H57.5999L53.1999 12.6002V18.4002H49.8999V0.200195Z" fill="#131E29"/>
<path d="M65.0999 18.0001C64.1999 17.5001 63.3999 16.7001 62.7999 15.7001C62.1999 14.7001 61.8999 13.5001 61.8999 12.2001C61.8999 10.9001 62.1999 9.9001 62.6999 8.9001C63.2999 7.9001 63.9999 7.1001 64.9999 6.5001C65.9999 5.9001 66.9999 5.6001 68.1999 5.6001C69.3999 5.6001 69.6999 5.7001 70.3999 6.0001C71.0999 6.3001 71.5999 6.6001 71.8999 7.1001V6.0001H75.1999V18.5001H71.8999V17.4001C71.3999 17.9001 70.7999 18.3001 70.1999 18.5001C69.5999 18.8001 68.8999 18.9001 67.8999 18.9001C66.8999 18.9001 65.8999 18.6001 64.9999 18.1001L65.0999 18.0001ZM71.1999 14.7001C71.7999 14.0001 72.0999 13.2001 72.0999 12.2001C72.0999 11.2001 71.7999 10.4001 71.1999 9.7001C70.5999 9.0001 69.7999 8.7001 68.6999 8.7001C67.5999 8.7001 66.7999 9.0001 66.1999 9.7001C65.5999 10.4001 65.2999 11.2001 65.2999 12.2001C65.2999 13.2001 65.5999 14.0001 66.1999 14.7001C66.7999 15.4001 67.5999 15.7001 68.6999 15.7001C69.7999 15.7001 70.5999 15.4001 71.1999 14.7001Z" fill="#131E29"/>
<path d="M77.7002 0.200195H81.0002V18.4002H77.7002V0.200195Z" fill="#131E29"/>
<path d="M83.6 3.6C83.2 3.2 83 2.7 83 2.1C83 1.5 83.2 1 83.6 0.6C84 0.2 84.5 0 85.1 0C85.7 0 86.2 0.2 86.6 0.6C87 1 87.2 1.5 87.2 2.1C87.2 2.7 87 3.2 86.6 3.6C86.2 4 85.7 4.2 85.1 4.2C84.5 4.2 84 4 83.6 3.6ZM83.5 5.9H86.8V18.4H83.5V5.9Z" fill="#131E29"/>
<path d="M89.1001 17.5L89.9001 14.4H90.1001C91.2001 15.2 92.3001 15.7 93.5001 15.7C94.7001 15.7 94.4001 15.7 94.7001 15.4C95.0001 15.2 95.1001 15 95.1001 14.6C95.1001 14.2 94.9001 14 94.6001 13.7C94.3001 13.5 93.6001 13.2 92.7001 12.9C91.7001 12.6 91.0001 12.1 90.5001 11.5C90.0001 10.9 89.7001 10.2 89.7001 9.4C89.7001 8.6 90.1001 7.3 91.0001 6.6C91.9001 5.9 93.0001 5.5 94.3001 5.5C95.6001 5.5 95.6001 5.5 96.1001 5.7C96.6001 5.8 97.1001 6 97.6001 6.3V9.5C97.0001 9.1 96.5001 8.8 96.0001 8.6C95.5001 8.4 95.0001 8.3 94.4001 8.3C93.8001 8.3 93.6001 8.3 93.4001 8.6C93.1001 8.8 93.0001 9 93.0001 9.3C93.0001 9.6 93.2001 9.9 93.5001 10.2C93.8001 10.4 94.5001 10.7 95.4001 11C96.5001 11.4 97.3001 11.8 97.8001 12.3C98.3001 12.8 98.6001 13.6 98.6001 14.7C98.6001 15.8 98.4001 16.3 97.9001 17C97.5001 17.6 96.9001 18.1 96.2001 18.4C95.5001 18.7 94.7001 18.9 93.8001 18.9C92.1001 18.9 90.6001 18.5 89.3001 17.7L89.1001 17.5Z" fill="#131E29"/>
<path d="M103 17.9001C102 17.3001 101.1 16.5001 100.5 15.5001C99.9001 14.5001 99.6001 13.3001 99.6001 12.1001C99.6001 10.9001 99.9001 9.8001 100.4 8.8001C101 7.8001 101.7 7.0001 102.8 6.5001C103.8 5.9001 104.9 5.6001 106.2 5.6001C107.5 5.6001 108.6 5.9001 109.5 6.5001C110.4 7.1001 111.1 7.9001 111.6 8.9001C112.1 9.9001 112.3 11.0001 112.3 12.1001V13.1001H102.7C102.9 14.0001 103.3 14.8001 104 15.2001C104.7 15.7001 105.5 15.9001 106.6 15.9001C108.3 15.9001 109.7 15.4001 111 14.3001H111.4V17.5001C110.5 17.9001 109.7 18.3001 108.9 18.5001C108.1 18.7001 107.2 18.8001 106.5 18.8001C105.2 18.8001 104 18.5001 103 17.9001ZM109.1 10.8001C109.1 10.0001 108.7 9.4001 108.2 9.0001C107.7 8.6001 107 8.4001 106.2 8.4001C105.4 8.4001 104.7 8.6001 104.2 9.0001C103.6 9.4001 103.2 10.0001 103 10.8001H109.2H109.1Z" fill="#131E29"/>
</g>
</g>
<defs>
<clipPath id="clip0_1377_3162">
<rect width="112.4" height="24" fill="white"/>
</clipPath>
</defs>
</svg>